    <svg  xmlns:dc="http://purl.org/dc/elements/1.1/" xmlns:cc="http://creativecommons.org/ns#"
      xmlns:rdf="http://www.w3.org/1999/02/22-rdf-syntax-ns#" xmlns:svg="http://www.w3.org/2000/svg"
      xmlns="http://www.w3.org/2000/svg" xmlns:sodipodi="http://sodipodi.sourceforge.net/DTD/sodipodi-0.dtd"
      xmlns:inkscape="http://www.inkscape.org/namespaces/inkscape" version="1.1" id="svg10" xml:space="preserve"
      width="1863.0493" height="531.1272" viewBox="0 0 1863.0493 531.1272" sodipodi:docname="mountains_sm.svg"
      inkscape:version="1.0 (4035a4f, 2020-05-01)">
      <metadata id="metadata16">
        <rdf:RDF>
          <cc:Work rdf:about="">
            <dc:format>image/svg+xml</dc:format>
            <dc:type rdf:resource="http://purl.org/dc/dcmitype/StillImage" />
            <dc:title></dc:title>
          </cc:Work>
        </rdf:RDF>
      </metadata>
      <defs id="defs14" />
      <sodipodi:namedview fit-margin-bottom="0" fit-margin-right="0" fit-margin-left="0" fit-margin-top="0"
        inkscape:document-rotation="0" pagecolor="#ffffff" bordercolor="#666666" borderopacity="1" objecttolerance="10"
        gridtolerance="10" guidetolerance="10" inkscape:pageopacity="0" inkscape:pageshadow="2"
        inkscape:window-width="1676" inkscape:window-height="1051" id="namedview12" showgrid="false"
        inkscape:zoom="0.48790806" inkscape:cx="911.03228" inkscape:cy="143.713" inkscape:window-x="52"
        inkscape:window-y="38" inkscape:window-maximized="1" inkscape:current-layer="g18" />
      <g id="g18" inkscape:groupmode="layer" inkscape:label="ink_ext_XXXXXX"
        transform="matrix(1.3333333,0,0,-1.3333333,-231.60102,531.22633)">
        <g id="g20" transform="matrix(0.08152461,0,0,0.06853028,173.70077,0.07434976)">
          <g id="g22" transform="scale(1.0515)">
            <path d="M 0,1404.67 H 16300 V 5528 H 0 V 1404.67"
              style="fill:#9ddaf6;fill-opacity:1;fill-rule:nonzero;stroke:none" id="path24" />
          </g>
          <g id="g26" transform="scale(1.0515)">
            <path
              d="m 0,1696.17 v 0 3112.02 c 349.849,29.82 724.361,55.38 1126.06,75.89 607.4,31 1162.65,45.17 1677.28,45.17 1951.09,0 3309.28,-204.1 4631.21,-469.63 l -1394.16,-1611.21 -366.31,339.82 -525.38,-305.91 -680.51,618.05 -785.63,-751.94 -712.75,568.78 -51.13,121.21 -97.38,230.81 146.36,1.33 -207.99,488.16 -159.01,373.47 -295.19,-684.82 -42.95,34.27 -708.45,-606.99 -119.45,280.46 -123.05,288.95 -289.63,-671.83 124.89,1.1 -0.48,-1.1 L 980.122,2782.92 882.123,2698.96 0,2947.07 v -1250.9 m 13508.7,702.61 -971.2,840.7 v 0 L 12140.6,3583 c 227.8,-28.94 464,-56.59 709.3,-82.63 302.5,-32.12 587.1,-49.22 860.9,-49.22 897.5,0 1678.7,183.77 2589.2,624.8 v -1237.8 l -426.9,-230.09 -771.7,656.52 -965.1,-794.35 -263.4,251.97 -364.2,-323.42 M 9838.2,2764.6 8852.54,3881.64 h 0.01 l -303.04,343.45 c 896.66,-192.44 1846.89,-394.45 3015.19,-563.78 l -579.1,-457.66 -471.6,-372.77 -289.5,276.78 -386.3,-343.06"
              style="fill:#c1eafa;fill-opacity:1;fill-rule:nonzero;stroke:none" id="path28" />
          </g>
          <path d="m 10600.6,2617.17 -255.7,289.81 406.2,360.73 304.4,-291.03 -454.9,-359.51"
            style="fill:#8accf0;fill-opacity:1;fill-rule:nonzero;stroke:none" id="path30" />
          <path
            d="m 14507.4,2303.55 c -22.2,5.53 -44.3,10.19 -66.4,13.93 l -236.6,204.84 383,340.08 277,-264.95 -357,-293.9"
            style="fill:#8accf0;fill-opacity:1;fill-rule:nonzero;stroke:none" id="path32" />
          <g id="g34" transform="scale(1.0515)">
            <path
              d="M 15101.4,3264.58 13772.3,2170.55 11818.4,3861.9 9678.53,2170.55 9798.07,1330.39 H 16300 v 914.51 l -1198.6,1019.68"
              style="fill:#839cc9;fill-opacity:1;fill-rule:nonzero;stroke:none" id="path36" />
          </g>
          <path
            d="m 12427.1,4060.8 -875.7,-692.15 526.3,189.85 289.6,-307.58 157.6,202.76 359.2,-265.04 -9.8,265.04 308.9,-47.36 -756.1,654.48"
            style="fill:#ffffff;fill-opacity:1;fill-rule:nonzero;stroke:none" id="path38" />
          <path
            d="m 10904.5,2272.71 -303.9,344.46 950.8,751.48 526.3,189.85 165.5,-175.78 -95.6,-352.52 489.1,83.72 -77.4,-644.07 c -195.7,94.08 -409.8,161.57 -621.4,161.61 -249.9,0 -592.8,-133.47 -930.2,-304.96 l -1.1,-0.7 c -34.1,-17.34 -68.2,-35.07 -102.1,-53.09"
            style="fill:#6a7fa1;fill-opacity:1;fill-rule:nonzero;stroke:none" id="path40" />
          <path d="m 11551.4,3368.65 875.7,692.15 -183.9,-678.08 -165.5,175.78 -526.3,-189.85"
            style="fill:#c9c8c6;fill-opacity:1;fill-rule:nonzero;stroke:none" id="path42" />
          <path
            d="m 3400.73,2438.7 -186.23,364.81 -169.8,332.4 -3.8,7.5 226.4,2 -144.54,342.65 749.46,-598.08 -471.49,-451.28 m -1289.87,66.43 -409.78,115.26 -81.98,160.58 h -0.01 l -2.93,5.74 175.17,1.55 -153.44,363.79 -79.23,187.85 119.04,1.06 -43.59,102.35 744.94,638.25 45.16,-36.04 -83.11,-192.81 169.7,1.5 -0.7,-1.5 -306,-716.8 233.3,2.1 -1.1,-2.1 -325.44,-630.78 m 3845.31,33.11 -542.3,492.53 552.44,321.66 385.18,-357.32 -395.32,-456.87 m -4810.18,238.28 -20.74,5.83 23.85,0.22 -0.82,-1.6 -2.29,-4.45 m -160.092,45.03 -58.343,16.41 103.045,88.29 -44.702,-104.7"
            style="fill:#8accf0;fill-opacity:1;fill-rule:nonzero;stroke:none" id="path44" />
          <path
            d="M 8188.57,5108.87 5956.17,2538.24 4698.32,3680.65 2863.4,1924.41 l -205.59,-196.79 555.55,-3.49 613.97,-3.91 1576.78,-10.06 2804.17,-17.89 3226.52,-20.55 -3144.62,3563.91 -101.61,-126.76"
            style="fill:#839cc9;fill-opacity:1;fill-rule:nonzero;stroke:none" id="path46" />
          <path
            d="m 4018.79,3030.26 348.76,108.96 232.93,186.34 97.84,-628.92 167.71,417.33 177.03,-193.72 55.9,163.06 249.65,6.73 -650.29,590.61 -679.53,-650.39"
            style="fill:#ffffff;fill-opacity:1;fill-rule:nonzero;stroke:none" id="path48" />
          <path
            d="m 3929.8,1993.52 -606.6,170.61 -48.8,107.98 210.4,1.9 -84.07,164.69 1297.59,1241.95 -679.53,-650.39 348.76,108.96 232.93,186.34 36.4,-234 -15.43,-148.01 -90.84,170.37 -125.79,-382.81 -118.8,212.44 -356.22,-950.03"
            style="fill:#6a7fa1;fill-opacity:1;fill-rule:nonzero;stroke:none" id="path50" />
          <path d="m 4018.79,3030.26 679.53,650.39 -61.44,-589.09 -36.4,234 -232.93,-186.34 -348.76,-108.96"
            style="fill:#c9c8c6;fill-opacity:1;fill-rule:nonzero;stroke:none" id="path52" />
          <path
            d="m 8290.18,5235.63 -993.75,-1154.07 402.09,273.57 9.32,-223.61 447.24,391.33 27.95,-400.65 251.57,372.7 354.06,-559.05 -65.22,649.89 585.04,-504.18 -1018.3,1154.07"
            style="fill:#ffffff;fill-opacity:1;fill-rule:nonzero;stroke:none" id="path54" />
          <path d="m 7819.4,4688.9 c -0.62,0.13 -1.33,0.27 -1.95,0.4 l 472.73,546.33 -470.78,-546.73"
            style="fill:#7aa9c4;fill-opacity:1;fill-rule:nonzero;stroke:none" id="path56" />
          <path
            d="m 6352.28,2994.37 -0.79,0.74 1465.96,1694.19 c 0.62,-0.13 1.33,-0.27 1.95,-0.4 l -522.68,-607 -944.44,-1087.53"
            style="fill:#97b7c6;fill-opacity:1;fill-rule:nonzero;stroke:none" id="path58" />
          <path d="m 5956.17,2538.24 395.32,456.87 0.79,-0.74 -396.11,-456.13"
            style="fill:#6aa0c4;fill-opacity:1;fill-rule:nonzero;stroke:none" id="path60" />
          <path
            d="m 5849.92,2378.88 106.25,159.36 396.11,456.13 944.44,1087.53 -0.29,-0.34 402.09,273.57 9.32,-223.61 291.74,255.27 -240.5,-702.51 573.03,279.53 -80.81,-1482.38 c -64.32,9.88 -128.71,18.88 -193.31,26.96 l -26.99,54.74 -23.94,48.57 22.07,0.2 -42.11,93.16 -15.02,33.22 24.69,0.22 -31.72,62.14 v 0 l -19.92,39.01 -0.44,0.87 26.56,0.24 -23.27,55.17 -12.01,28.48 18.05,0.16 -25.65,60.24 -19.63,46.07 -46.18,-107.12 19.92,0.17 -0.08,-0.17 -35.91,-84.11 27.38,0.25 -0.13,-0.25 -53,-102.71 24.9,0.22 -58.27,-127.41 23.06,0.2 -36.01,-72.25 c -31.68,2.57 -63.3,4.89 -95.01,6.98 l -21.04,46.54 -12.97,28.69 21.32,0.19 -27.39,53.66 -17.2,33.68 -0.38,0.75 22.93,0.21 -20.09,47.63 -10.37,24.6 15.59,0.14 -22.15,52.01 -16.95,39.78 -39.88,-92.5 17.2,0.16 -0.06,-0.16 -31.01,-72.62 23.63,0.21 -0.1,-0.21 -45.77,-88.69 21.51,0.2 -29.91,-65.4 c -7.27,0.26 -14.53,0.52 -21.8,0.76 l -0.1,0.19 -21.38,43.37 19.71,0.17 -37.6,83.19 -13.41,29.68 22.05,0.19 -28.33,55.49 -17.79,34.84 -0.39,0.77 23.71,0.21 -20.77,49.27 -10.73,25.43 16.12,0.15 -22.91,53.79 -17.52,41.14 -41.24,-95.66 17.78,0.16 -0.07,-0.16 -18.23,-42.71 -12.49,24.46 -22.88,44.83 -0.51,1 30.52,0.27 -26.74,63.38 -13.8,32.73 20.74,0.18 -29.48,69.21 -22.55,52.94 -53.05,-123.08 22.87,0.2 -0.08,-0.2 -41.26,-96.63 31.45,0.28 -0.14,-0.28 -34.99,-67.8 -4.74,11.24 -10.38,24.6 15.59,0.13 -22.15,52.02 -16.94,39.78 -39.88,-92.5 17.2,0.16 -0.07,-0.16 -31.01,-72.62 23.64,0.21 -0.11,-0.21 -45.76,-88.68 21.5,0.18 -39.27,-85.86 -21.89,44.4 23.66,0.21 -45.12,99.83 -16.1,35.61 26.46,0.24 -34,66.58 -21.34,41.81 -0.47,0.93 28.46,0.25 -24.93,59.11 -12.88,30.53 19.34,0.17 -27.49,64.55 -21.02,49.37 -49.49,-114.79 21.34,0.19 -0.08,-0.19 -38.48,-90.12 29.33,0.25 -0.13,-0.25 -56.8,-110.07 26.69,0.24 -62.45,-136.54 24.72,0.22 -66.21,-132.82 c -17.34,-1.54 -34.61,-3.16 -51.81,-4.85 -14.04,-1.38 -28,-2.8 -41.94,-4.27 l -3.2,6.49 15.06,0.13 -28.72,63.54 -10.25,22.67 16.84,0.15 -21.63,42.37 -13.58,26.61 -0.31,0.6 18.12,0.16 -15.87,37.62 -8.2,19.43 12.31,0.11 -17.49,41.08 -13.39,31.43 -31.49,-73.06 13.58,0.12 -0.05,-0.12 -24.49,-57.37 18.67,0.17 -0.09,-0.17 -36.15,-70.05 16.99,0.15 -39.75,-86.9 15.73,0.14 -11.44,-22.95 c -15.9,-2.1 -31.76,-4.26 -47.54,-6.48 l -7.91,17.5 -7.17,15.86 11.78,0.1 -15.14,29.66 -9.5,18.61 -0.22,0.42 12.68,0.12 -11.1,26.32 -5.74,13.6 8.62,0.07 -12.24,28.75 -9.37,21.99 -22.04,-51.13 9.5,0.09 -0.03,-0.09 -17.14,-40.14 13.07,0.12 -0.06,-0.12 -25.3,-49.01 11.89,0.11 -21.65,-47.33 c -179.29,-28.4 -350.14,-64.45 -512.61,-106.68 m 1482.41,400.24 -3.4,7.52 7.31,0.06 -3.91,-7.58 m -150.31,2.65 -1.82,3.55 3.45,0.03 -1.63,-3.58"
            style="fill:#6a7fa1;fill-opacity:1;fill-rule:nonzero;stroke:none" id="path62" />
          <path
            d="m 7296.43,4081.56 0.29,0.34 522.68,607 470.78,546.73 -290.6,-848.84 -291.74,-255.27 -9.32,223.61 -402.09,-273.57"
            style="fill:#c9c8c6;fill-opacity:1;fill-rule:nonzero;stroke:none" id="path64" />
          <g id="g66" transform="scale(1.0515)">
            <path d="M 13453.7,1303.88 H 16300 V 2838.15 L 13453.7,1303.88"
              style="fill:#71b52d;fill-opacity:1;fill-rule:nonzero;stroke:none" id="path68" />
          </g>
          <g id="g70" transform="scale(1.0515)">
            <path d="m 0,1373.16 v -69.28 h 16300 v 69.28 H 0"
              style="fill:#ecf9fb;fill-opacity:1;fill-rule:nonzero;stroke:none" id="path72" />
          </g>
          <path
            d="m 14258,2325.8 c -181.4,-15.93 -328.6,-51.99 -447.1,-96.71 l -0.2,-0.14 c -343.8,-129.84 -447.2,-333.61 -447.2,-333.61 0,0 -0.8,0.84 -2.5,2.52 -46.4,46.26 -747.9,733.46 -1423.1,733.6 -249.9,0 -592.8,-133.47 -930.2,-304.96 l -1.1,-0.7 C 10401,2017.91 9813.58,1587.87 9813.58,1587.87 v -216.84 h 5884.02 c -31.3,39.32 -72.3,89.19 -121.4,145.7 -280.1,321.59 -822.4,852.54 -1318.2,809.07"
            style="fill:#71b52d;fill-opacity:1;fill-rule:nonzero;stroke:none" id="path74" />
          <path d="M 4709.64,1774.17 0,3098.85 V 1371.03 h 6143.14 l -1433.5,403.14"
            style="fill:#71b52d;fill-opacity:1;fill-rule:nonzero;stroke:none" id="path76" />
          <path
            d="m 3907.27,1371.03 h -28.61 l -11.65,25.77 33.24,0.3 -42.7,83.62 -26.81,52.51 -0.6,1.18 35.76,0.31 -31.32,74.25 -16.17,38.34 24.29,0.22 -34.53,81.08 -26.41,62.01 -62.16,-144.18 26.81,0.24 -0.1,-0.24 -48.34,-113.21 36.85,0.33 -0.17,-0.33 -67.3,-130.4 -264.95,586.08 -79.2,175.22 1207.41,-339.61 C 4286.1,1675.91 4079.14,1519.63 3907.27,1371.03 m -221.53,0 h -4.01 l -10.86,24.03 25.96,0.23 -11.09,-24.26 M 2020.63,1877.1 c -50.92,25.79 -101.99,52.13 -153.11,78.94 l -70.72,156.44 162.84,1.44 -209.2,409.76 h 0.01 l -49.37,96.71 409.78,-115.26 -126.16,-244.52 212.2,1.9 -176.27,-385.41 M 981.137,2457.06 C 513.957,2737.47 135.168,2987.5 0,3077.89 v 20.96 l 985.898,-277.3 -17.324,-40.58 156.676,1.38 20.74,-5.83 -164.853,-319.46"
            style="fill:#91c839;fill-opacity:1;fill-rule:nonzero;stroke:none" id="path78" />
          <path
            d="m 11110.8,1613.66 23.7,0.21 -45.2,100.13 -16.2,35.71 26.5,0.24 -34.1,66.78 -21.4,41.93 -0.4,0.94 28.5,0.25 -25,59.29 -12.9,30.61 19.4,0.18 -27.6,64.74 -21.1,49.52 -49.6,-115.14 21.4,0.19 -0.1,-0.19 -38.6,-90.39 29.4,0.26 -0.1,-0.26 -57,-110.39 26.8,0.24 -62.6,-136.94 24.8,0.21 -78.5,-157.35 168.9,1.49 v -55.03 h 30.7 v 55.31 l 167.2,1.48 -51.2,103.78 -25.7,52.2"
            style="fill:#224559;fill-opacity:1;fill-rule:nonzero;stroke:none" id="path80" />
          <path
            d="m 10881.8,1690.33 18.6,0.16 -35.5,78.51 -12.6,28 20.8,0.18 -26.8,52.36 -16.8,32.88 -0.3,0.73 22.4,0.2 -19.7,46.49 -10.1,24 15.2,0.14 -21.6,50.75 -16.5,38.83 -38.9,-90.27 16.7,0.15 v -0.15 l -30.3,-70.87 23.1,0.2 -0.1,-0.2 -44.7,-86.56 21,0.19 -49.1,-107.37 19.4,0.17 -61.5,-123.38 132.4,1.18 v -43.15 h 24.1 v 43.36 l 131.1,1.17 -40.1,81.37 -20.2,40.93"
            style="fill:#224559;fill-opacity:1;fill-rule:nonzero;stroke:none" id="path82" />
          <path
            d="m 11271.2,1542.12 18.6,0.16 -35.5,78.51 -12.7,28 20.8,0.18 -26.7,52.36 -16.8,32.88 -0.4,0.73 22.4,0.2 -19.6,46.49 -10.1,24 15.2,0.14 -21.6,50.76 -16.5,38.82 -39,-90.27 16.8,0.15 v -0.15 l -30.3,-70.87 23.1,0.2 -0.1,-0.2 -44.7,-86.56 21,0.19 -49.1,-107.37 19.4,0.17 -61.5,-123.37 132.4,1.17 v -43.15 h 24.1 v 43.37 l 131.1,1.16 -40.2,81.37 -20.1,40.93"
            style="fill:#224559;fill-opacity:1;fill-rule:nonzero;stroke:none" id="path84" />
          <path
            d="m 10349.4,1917.55 20.6,0.18 -39.3,86.91 -14,31 23,0.2 -29.5,57.96 -18.6,36.4 -0.4,0.81 24.7,0.22 -21.7,51.46 -11.2,26.57 16.9,0.15 -24,56.2 -18.3,42.97 -43.1,-99.93 18.6,0.17 v -0.17 l -33.5,-78.45 25.5,0.23 -0.1,-0.23 -49.5,-95.82 23.3,0.21 -54.4,-118.86 21.5,0.19 -68.1,-136.58 146.6,1.3 v -47.77 h 26.7 v 48.01 l 145.1,1.28 -44.4,90.08 -22.4,45.31"
            style="fill:#285c6d;fill-opacity:1;fill-rule:nonzero;stroke:none" id="path86" />
          <path
            d="m 10070.1,2075.27 23.8,0.21 -45.4,100.54 -16.2,35.85 26.6,0.24 -34.2,67.05 -21.5,42.1 -0.5,0.94 28.7,0.26 -25.1,59.53 -13.02,30.74 19.52,0.17 -27.72,65 -21.18,49.72 -49.83,-115.6 21.49,0.19 -0.09,-0.19 -38.75,-90.76 29.54,0.27 -0.13,-0.27 -57.2,-110.83 26.88,0.23 -62.89,-137.49 24.89,0.22 -78.75,-158 169.55,1.51 v -55.26 h 30.86 v 55.53 l 167.83,1.49 -51.4,104.2 -25.8,52.41"
            style="fill:#285c6d;fill-opacity:1;fill-rule:nonzero;stroke:none" id="path88" />
          <path
            d="m 9841.57,2202.13 30.33,0.27 -57.84,127.96 -20.63,45.64 33.91,0.3 -43.57,85.35 -27.36,53.58 -0.61,1.2 36.49,0.33 -31.96,75.76 -16.5,39.13 24.79,0.22 -35.24,82.74 -26.95,63.28 -63.43,-147.13 27.35,0.24 -0.1,-0.24 -49.33,-115.53 37.6,0.34 -0.17,-0.34 -72.8,-141.07 34.21,0.3 -80.04,-175.01 31.68,0.28 -100.24,-201.09 215.8,1.91 v -70.33 h 39.29 v 70.68 l 213.61,1.9 -65.4,132.63 -32.89,66.7"
            style="fill:#285c6d;fill-opacity:1;fill-rule:nonzero;stroke:none" id="path90" />
          <path
            d="m 1304.9,1448.16 21.68,0.19 -27.85,54.56 -17.49,34.26 -0.4,0.77 23.33,0.21 -20.43,48.44 -10.55,25.01 15.85,0.14 -22.53,52.9 -17.23,40.45 -40.55,-94.06 17.49,0.15 -0.07,-0.15 -31.54,-73.86 24.04,0.22 -0.11,-0.22 -46.54,-90.19 21.87,0.2 -34.83,-76.15 h 180.72 l -21.67,47.95 -13.19,29.18"
            style="fill:#285c6d;fill-opacity:1;fill-rule:nonzero;stroke:none" id="path92" />
          <path
            d="m 1528.68,1489.89 -16.84,37.27 27.69,0.25 -35.58,69.68 -22.34,43.76 -0.5,0.98 29.79,0.26 -26.09,61.87 -13.48,31.95 20.25,0.17 -28.77,67.56 -22.01,51.68 -51.79,-120.14 22.33,0.19 -0.09,-0.19 -40.27,-94.33 30.7,0.27 -0.14,-0.27 -59.44,-115.2 27.93,0.25 -65.36,-142.9 25.87,0.23 -6.08,-12.2 h 233.67 l -6.98,14.16 24.76,0.22 -47.23,104.48"
            style="fill:#285c6d;fill-opacity:1;fill-rule:nonzero;stroke:none" id="path94" />
          <path
            d="m 1703.19,1452.05 27.69,0.24 -35.57,69.69 -22.34,43.76 -0.5,0.97 29.79,0.27 -26.1,61.87 -13.47,31.95 20.24,0.18 -28.77,67.55 -22.01,51.68 -51.79,-120.15 22.34,0.2 -0.09,-0.2 -40.28,-94.32 30.71,0.27 -0.14,-0.27 -59.45,-115.2 27.93,0.25 -36.48,-79.76 h 214.91 l -19.77,43.75 -16.85,37.27"
            style="fill:#285c6d;fill-opacity:1;fill-rule:nonzero;stroke:none" id="path96" />
          <path
            d="m 2863.94,1463.15 -22.34,43.75 -0.5,0.98 29.79,0.26 -26.09,61.87 -13.48,31.95 20.25,0.18 -28.78,67.56 -22,51.67 -51.8,-120.14 22.34,0.2 -0.09,-0.2 -40.28,-94.33 30.71,0.27 -0.14,-0.27 -59.44,-115.19 27.93,0.24 -9.57,-20.92 h 161.4 l -10.03,22.19 27.69,0.24 -35.57,69.69"
            style="fill:#285c6d;fill-opacity:1;fill-rule:nonzero;stroke:none" id="path98" />
          <path
            d="m 3036.15,1437.06 -13.48,31.95 20.25,0.18 -28.77,67.56 -22.01,51.67 -51.79,-120.14 22.33,0.2 -0.08,-0.2 -40.28,-94.33 30.7,0.28 -0.14,-0.28 -1.5,-2.92 h 83.06 l -1.49,2.92 -0.5,0.98 29.79,0.26 -26.09,61.87"
            style="fill:#285c6d;fill-opacity:1;fill-rule:nonzero;stroke:none" id="path100" />
          <path
            d="m 4081.97,1504.15 -16.85,37.27 27.69,0.25 -35.57,69.69 v 0 l -22.34,43.75 -0.5,0.98 29.79,0.26 -26.09,61.87 -13.48,31.95 20.24,0.18 -28.77,67.56 -22,51.67 -51.8,-120.14 22.34,0.2 -0.09,-0.2 -40.27,-94.33 30.7,0.27 -0.14,-0.27 -59.44,-115.19 27.93,0.25 -65.36,-142.91 25.87,0.23 -13.19,-26.46 h 247.81 l -14.01,28.42 24.76,0.22 -47.23,104.48"
            style="fill:#285c6d;fill-opacity:1;fill-rule:nonzero;stroke:none" id="path102" />
          <path
            d="m 9483.25,2237.32 20.44,0.18 -38.98,86.21 -13.89,30.75 22.84,0.2 -29.35,57.51 -18.43,36.1 -0.41,0.8 24.58,0.22 -21.53,51.05 -11.12,26.36 16.7,0.15 -23.74,55.75 -18.16,42.63 -42.74,-99.13 18.43,0.16 -0.07,-0.16 -33.23,-77.83 25.34,0.22 -0.12,-0.22 -49.05,-95.05 23.05,0.2 -53.93,-117.91 21.34,0.19 -67.54,-135.49 145.4,1.29 v -47.38 h 26.47 v 47.62 l 143.92,1.27 -44.06,89.37 -22.16,44.94"
            style="fill:#224559;fill-opacity:1;fill-rule:nonzero;stroke:none" id="path104" />
          <path
            d="m 9333.88,2189.64 17.81,0.16 -33.96,75.11 -12.11,26.8 19.91,0.17 -25.58,50.1 -16.06,31.45 -0.36,0.71 21.42,0.19 -18.76,44.48 -9.68,22.97 14.55,0.13 -20.69,48.57 -15.82,37.14 -37.23,-86.37 16.05,0.14 -0.06,-0.14 -28.95,-67.82 22.07,0.2 -0.1,-0.2 -42.74,-82.81 20.09,0.18 -46.99,-102.74 18.59,0.17 -58.84,-118.05 126.68,1.12 v -41.28 h 23.06 v 41.49 l 125.4,1.11 -38.39,77.86 -19.31,39.16"
            style="fill:#224559;fill-opacity:1;fill-rule:nonzero;stroke:none" id="path106" />
          <path
            d="m 9030.66,2377.11 17.8,0.16 -33.95,75.11 -12.11,26.79 19.91,0.18 -25.58,50.1 -16.06,31.45 -0.36,0.71 21.42,0.19 -18.76,44.48 -9.69,22.97 14.56,0.12 -20.69,48.57 -15.82,37.15 -37.24,-86.37 16.06,0.14 -0.06,-0.14 -28.96,-67.82 22.08,0.2 -0.1,-0.2 -42.74,-82.81 20.08,0.18 -46.99,-102.74 18.6,0.17 -58.84,-118.05 126.68,1.12 v -41.28 h 23.06 v 41.49 l 125.39,1.11 -38.38,77.86 -19.31,39.16"
            style="fill:#224559;fill-opacity:1;fill-rule:nonzero;stroke:none" id="path108" />
          <path
            d="m 8795,2429.78 23.67,0.21 -45.16,99.91 -16.11,35.63 26.48,0.24 -34.01,66.63 -21.37,41.84 -0.47,0.93 28.48,0.26 -24.95,59.15 -12.88,30.55 19.35,0.17 -27.51,64.6 -21.04,49.41 -49.52,-114.88 21.35,0.19 -0.08,-0.19 -38.51,-90.19 29.36,0.26 -0.14,-0.26 -56.84,-110.14 26.71,0.23 -62.49,-136.64 24.73,0.22 -78.26,-157.01 168.49,1.5 v -54.91 h 30.67 v 55.18 l 166.78,1.48 -51.06,103.55 -25.67,52.08"
            style="fill:#285c6d;fill-opacity:1;fill-rule:nonzero;stroke:none" id="path110" />
          <path
            d="m 8492.74,2329.46 15.58,0.14 -29.72,65.73 -10.59,23.45 17.42,0.15 -22.38,43.85 -14.06,27.52 -0.31,0.62 18.74,0.16 -16.42,38.93 -8.47,20.1 12.73,0.11 -18.1,42.5 -13.85,32.51 -32.58,-75.58 14.05,0.12 -0.05,-0.12 -25.34,-59.35 19.31,0.18 -0.08,-0.18 -37.4,-72.47 17.57,0.16 -41.12,-89.9 16.28,0.14 -51.5,-103.31 110.86,0.99 v -36.13 h 20.19 v 36.31 l 109.73,0.97 -33.6,68.13 -16.89,34.27"
            style="fill:#285c6d;fill-opacity:1;fill-rule:nonzero;stroke:none" id="path112" />
          <path
            d="m 8007.06,2611.7 22.07,0.2 -42.11,93.16 -15.02,33.22 24.69,0.22 -31.72,62.14 v 0 l -19.92,39.01 -0.44,0.87 26.56,0.24 -23.27,55.17 -12.01,28.48 18.05,0.16 -25.65,60.24 -19.63,46.07 -46.18,-107.12 19.92,0.17 -0.08,-0.17 -35.91,-84.11 27.38,0.25 -0.13,-0.25 -53,-102.71 24.9,0.22 -58.27,-127.41 23.06,0.2 -72.98,-146.4 157.12,1.39 v -51.2 h 28.6 v 51.46 l 155.52,1.38 -47.61,96.55 -23.94,48.57"
            style="fill:#224559;fill-opacity:1;fill-rule:nonzero;stroke:none" id="path114" />
          <path
            d="m 7675.59,2510.61 19.06,0.17 -36.36,80.44 -12.97,28.69 21.32,0.19 -27.39,53.66 -17.2,33.68 -0.38,0.75 22.93,0.21 -20.09,47.63 -10.37,24.6 15.59,0.14 -22.15,52.01 -16.95,39.78 -39.88,-92.5 17.2,0.16 -0.06,-0.16 -31.01,-72.62 23.63,0.21 -0.1,-0.21 -45.77,-88.69 21.51,0.2 -50.32,-110.02 19.91,0.18 -63.01,-126.43 135.66,1.21 v -44.22 h 24.7 v 44.44 l 134.28,1.19 -41.11,83.38 -20.67,41.93"
            style="fill:#224559;fill-opacity:1;fill-rule:nonzero;stroke:none" id="path116" />
          <path
            d="m 7227.29,2601.13 19.06,0.17 -36.36,80.44 -12.97,28.69 21.32,0.19 -27.39,53.65 -17.2,33.69 -0.38,0.76 22.93,0.2 -20.09,47.63 -10.38,24.6 15.59,0.13 -22.15,52.02 -16.94,39.78 -39.88,-92.5 17.2,0.16 -0.07,-0.16 -31.01,-72.62 23.64,0.21 -0.11,-0.21 -45.76,-88.68 21.5,0.18 -50.31,-110.01 19.91,0.17 -63.02,-126.41 135.67,1.2 v -44.22 h 24.7 v 44.44 l 134.28,1.19 -41.11,83.38 -20.67,41.93"
            style="fill:#224559;fill-opacity:1;fill-rule:nonzero;stroke:none" id="path118" />
          <path
            d="m 7026.68,2668 23.66,0.21 -45.12,99.83 -16.1,35.61 26.46,0.24 -34,66.58 -21.34,41.81 -0.47,0.93 28.46,0.25 -24.93,59.11 -12.88,30.53 19.34,0.17 -27.49,64.55 -21.02,49.37 -49.49,-114.79 21.34,0.19 -0.08,-0.19 -38.48,-90.12 29.33,0.25 -0.13,-0.25 -56.8,-110.07 26.69,0.24 -62.45,-136.54 24.72,0.22 -78.21,-156.89 168.37,1.5 v -54.88 h 30.65 v 55.15 l 166.65,1.48 -51.02,103.47 -25.66,52.04"
            style="fill:#224559;fill-opacity:1;fill-rule:nonzero;stroke:none" id="path120" />
          <path
            d="m 6652.74,2530.68 15.06,0.13 -28.72,63.54 -10.25,22.67 16.84,0.15 -21.63,42.37 -13.58,26.61 -0.31,0.6 18.12,0.16 -15.87,37.62 -8.2,19.43 12.31,0.11 -17.49,41.08 -13.39,31.43 -31.49,-73.06 13.58,0.12 -0.05,-0.12 -24.49,-57.37 18.67,0.17 -0.09,-0.17 -36.15,-70.05 16.99,0.15 -39.75,-86.9 15.73,0.14 -49.77,-99.86 107.16,0.95 v -34.92 h 19.51 v 35.1 l 106.06,0.94 -32.46,65.86 -16.34,33.12"
            style="fill:#224559;fill-opacity:1;fill-rule:nonzero;stroke:none" id="path122" />
          <path
            d="m 6461.25,2473 10.54,0.1 -20.1,44.46 -7.17,15.86 11.78,0.1 -15.14,29.66 -9.5,18.61 -0.22,0.42 12.68,0.12 -11.1,26.32 -5.74,13.6 8.62,0.07 -12.24,28.75 -9.37,21.99 -22.04,-51.13 9.5,0.09 -0.03,-0.09 -17.14,-40.14 13.07,0.12 -0.06,-0.12 -25.3,-49.01 11.89,0.11 -27.81,-60.82 11,0.1 -34.83,-69.87 74.99,0.66 v -24.43 h 13.65 v 24.55 l 74.22,0.66 -22.73,46.09 -11.42,23.17"
            style="fill:#224559;fill-opacity:1;fill-rule:nonzero;stroke:none" id="path124" />
          <path
            d="m 4330.32,1512.9 -16.39,36.26 26.94,0.23 -34.61,67.79 -21.73,42.57 -0.49,0.95 28.98,0.25 -25.38,60.18 -13.11,31.08 19.7,0.18 -27.99,65.72 -21.41,50.26 -50.38,-116.87 21.72,0.19 -0.08,-0.19 -39.18,-91.75 29.87,0.26 -0.14,-0.26 -57.82,-112.06 27.17,0.24 -63.58,-139.01 25.16,0.23 -19,-38.12 h 253.34 l -19.74,40.02 24.09,0.21 -45.94,101.64"
            style="fill:#285c6d;fill-opacity:1;fill-rule:nonzero;stroke:none" id="path126" />
          <path
            d="m 7369.21,2641.19 25.36,0.23 -48.38,107.03 -17.26,38.19 28.37,0.25 -36.45,71.39 -22.88,44.83 -0.51,1 30.52,0.27 -26.74,63.38 -13.8,32.73 20.74,0.18 -29.48,69.21 -22.55,52.94 -53.05,-123.08 22.87,0.2 -0.08,-0.2 -41.26,-96.63 31.45,0.28 -0.14,-0.28 -60.9,-118.01 28.61,0.25 -66.95,-146.4 26.5,0.24 -83.85,-168.22 180.52,1.6 v -58.83 h 32.86 v 59.12 l 178.69,1.59 -54.7,110.94 -27.51,55.8"
            style="fill:#285c6d;fill-opacity:1;fill-rule:nonzero;stroke:none" id="path128" />
          <path
            d="m 7462.96,2597.87 19.71,0.17 -37.6,83.19 -13.41,29.68 22.05,0.19 -28.33,55.49 -17.79,34.84 -0.39,0.77 23.71,0.21 -20.77,49.27 -10.73,25.43 16.12,0.15 -22.91,53.79 -17.52,41.14 -41.24,-95.66 17.78,0.16 -0.07,-0.16 -32.06,-75.1 24.44,0.22 -0.11,-0.22 -47.33,-91.72 22.24,0.2 -52.04,-113.78 20.6,0.18 -65.17,-130.75 140.3,1.25 v -45.73 h 25.54 v 45.96 l 138.87,1.23 -42.51,86.23 -21.38,43.37"
            style="fill:#285c6d;fill-opacity:1;fill-rule:nonzero;stroke:none" id="path130" />
          <path
            d="m 3857.55,1480.72 -26.81,52.51 -0.6,1.18 35.76,0.31 -31.32,74.25 -16.17,38.34 24.29,0.22 -34.53,81.08 -26.41,62.01 -62.16,-144.18 26.81,0.24 -0.1,-0.24 -48.34,-113.21 36.85,0.33 -0.17,-0.33 -71.34,-138.24 33.52,0.3 -11.09,-24.26 h 192.92 l -11.65,25.77 33.24,0.3 -42.7,83.62"
            style="fill:#285c6d;fill-opacity:1;fill-rule:nonzero;stroke:none" id="path132" />
          <path
            d="m 6697.88,2528.46 c -795.66,-78.13 -1439.4,-305.8 -1945.75,-577.35 -343.47,-184.22 -623.31,-388.52 -844.86,-580.08 h 7537.13 c -1033.4,537.55 -2601.81,1186.9 -4147.92,1186.36 -208.39,-0.14 -407.97,-10.2 -598.6,-28.93"
            style="fill:#71b52d;fill-opacity:1;fill-rule:nonzero;stroke:none" id="path134" />
          <path
            d="M 11444.4,1371.03 H 6748.3 c -1579.07,262.25 -1996.17,580.08 -1996.17,580.08 506.35,271.55 1150.09,499.22 1945.75,577.35 190.63,18.73 390.21,28.79 598.6,28.93 0.66,0 1.25,0 1.91,0 1545.47,0 3113.01,-649.04 4146.01,-1186.36"
            style="fill:#91c839;fill-opacity:1;fill-rule:nonzero;stroke:none" id="path136" />
          <path
            d="M 13781.9,1371.03 H 13047 c -68.8,32.96 -152.8,71.97 -256.5,117.92 -3.2,1.41 -7.3,2.04 -12.1,2.04 -21,0 -56.1,-11.92 -90.8,-23.84 -34.7,-11.92 -69,-23.84 -88.5,-23.84 -2.5,0 -4.7,0.18 -6.6,0.57 -1427.9,286.33 -1585.9,881.92 -1585.9,881.92 l 1.1,0.7 c 337.4,171.49 680.3,304.96 930.2,304.96 675.2,-0.14 1376.7,-687.34 1423.1,-733.6 211,-224.26 361.1,-437.59 420.9,-526.83"
            style="fill:#91c839;fill-opacity:1;fill-rule:nonzero;stroke:none" id="path138" />
          <path
            d="m 15213.4,1377.23 c -108.5,0 -241.3,24.09 -403.4,84.85 -782.6,293.5 -999.3,766.87 -999.3,766.87 l 0.2,0.14 c 118.5,44.72 265.7,80.78 447.1,96.71 19.3,1.69 38.6,2.51 58,2.51 479.6,0 991,-502.49 1260.2,-811.58 -71,-74.32 -184.2,-139.51 -362.8,-139.5"
            style="fill:#91c839;fill-opacity:1;fill-rule:nonzero;stroke:none" id="path140" />
          <g id="g142" transform="scale(1.0515)">
            <path d="m 15873.1,2608.06 v 0 l 426.9,230.09 -426.9,-230.09"
              style="fill:#cfeefb;fill-opacity:1;fill-rule:nonzero;stroke:none" id="path144" />
          </g>
          <g id="g146" transform="scale(1.02396)">
            <path d="m 15487.1,2239.99 v 0 l 812.9,438.21 v 0 l -812.9,-438.21"
              style="fill:#a3b4d6;fill-opacity:1;fill-rule:nonzero;stroke:none" id="path148" />
          </g>
          <g id="g150" transform="scale(1.0515)">
            <path
              d="m 16033,1447.06 c -82.5,0 -180.5,19.22 -293.5,72.87 -398.7,189.2 -657.9,661.05 -658,661.4 l 791.6,426.73 426.9,230.09 V 1527.34 c -51.4,-35.49 -141,-80.29 -267,-80.28"
              style="fill:#91c839;fill-opacity:1;fill-rule:nonzero;stroke:none" id="path152" />
          </g>
          <path
            d="m 13746.5,1621.32 19.2,0.17 -36.6,81.12 -13.1,28.94 21.5,0.19 -27.6,54.1 -17.4,33.97 -0.3,0.76 23.1,0.2 -20.3,48.04 -10.4,24.8 15.7,0.14 -22.4,52.45 -17,40.12 -40.3,-93.28 17.4,0.16 -0.1,-0.16 -31.3,-73.23 23.9,0.21 -0.1,-0.21 -46.2,-89.43 21.7,0.19 -50.7,-110.95 20.1,0.18 -63.6,-127.48 136.8,1.21 v -44.58 h 24.9 v 44.8 l 135.4,1.2 -41.4,84.08 -20.9,42.29"
            style="fill:#285c6d;fill-opacity:1;fill-rule:nonzero;stroke:none" id="path154" />
          <path
            d="m 13929.8,1715.8 20.5,0.18 -39.2,86.63 -13.9,30.9 22.9,0.2 -29.5,57.78 -18.5,36.28 -0.4,0.81 24.7,0.22 -21.6,51.29 -11.2,26.49 16.8,0.15 -23.9,56.01 -18.2,42.84 -43,-99.6 18.6,0.16 -0.1,-0.16 -33.4,-78.21 25.5,0.23 -0.2,-0.23 -49.2,-95.51 23.1,0.21 -54.2,-118.48 21.5,0.19 -67.9,-136.14 146.1,1.3 v -47.62 h 26.6 v 47.85 l 144.6,1.28 -44.3,89.79 -22.2,45.16"
            style="fill:#224559;fill-opacity:1;fill-rule:nonzero;stroke:none" id="path156" />
          <path
            d="m 11667.5,1563.25 -22.1,48.81 36.3,0.33 -46.6,91.26 -29.3,57.3 v 0 l -0.6,1.28 39,0.35 -34.2,81.03 -17.6,41.84 26.5,0.23 -37.7,88.48 -28.8,67.67 -67.9,-157.34 29.3,0.26 -0.1,-0.26 -52.8,-123.54 40.2,0.36 -0.1,-0.36 -77.9,-150.86 36.6,0.33 -85.6,-187.15 33.9,0.3 -26.2,-52.54 h 342.3 l -27.2,55.1 32.4,0.29 -61.8,136.83"
            style="fill:#285c6d;fill-opacity:1;fill-rule:nonzero;stroke:none" id="path158" />
          <g id="g160" transform="scale(1.02774)">
            <path
              d="m 15341.9,2136.91 c -529.1,0 -958.2,-289.46 -958.2,-646.53 0,-53.92 10,-106.27 28.5,-156.35 h 1859.4 c 18.5,50.08 28.4,102.43 28.4,156.35 0,357.07 -429,646.53 -958.1,646.53"
              style="fill:#71b52d;fill-opacity:1;fill-rule:nonzero;stroke:none" id="path162" />
          </g>
          <path
            d="m 12017.2,1431.31 27.4,0.24 -52.2,115.52 -18.7,41.21 30.7,0.27 -39.4,77.05 -24.7,48.38 -0.5,1.08 32.9,0.29 -28.8,68.41 -14.9,35.32 22.3,0.2 -31.8,74.69 -24.3,57.14 -57.3,-132.84 24.7,0.22 -0.1,-0.22 -44.5,-104.29 33.9,0.3 -0.1,-0.3 -65.7,-127.36 30.9,0.27 -72.3,-158 28.6,0.25 -29,-58.11 h 302.6 v 0.06 l -29.7,60.22"
            style="fill:#224559;fill-opacity:1;fill-rule:nonzero;stroke:none" id="path164" />
          <path
            d="m 14088.4,1614.78 20.6,0.18 -39.2,86.63 -14,30.9 23,0.2 -29.5,57.78 -18.5,36.28 -0.4,0.81 24.7,0.22 -21.7,51.29 -11.1,26.49 16.7,0.15 -23.8,56.01 -18.3,42.84 -42.9,-99.6 18.5,0.16 -0.1,-0.16 -33.3,-78.21 25.4,0.22 -0.1,-0.22 -49.3,-95.51 23.2,0.21 -54.2,-118.48 21.4,0.19 -67.8,-136.14 146.1,1.29 v -47.61 h 26.6 v 47.85 l 144.6,1.28 -44.3,89.79 -22.3,45.16"
            style="fill:#285c6d;fill-opacity:1;fill-rule:nonzero;stroke:none" id="path166" />
          <path
            d="m 14222.2,1579.06 18.5,0.17 -35.3,78.04 -12.5,27.84 20.6,0.18 -26.5,52.05 -16.7,32.69 -0.4,0.72 22.3,0.2 -19.5,46.21 -10.1,23.87 15.1,0.13 -21.5,50.46 -16.4,38.6 -38.7,-89.74 16.7,0.15 -0.1,-0.15 -30,-70.45 22.9,0.2 -0.1,-0.2 -44.4,-86.05 20.8,0.19 -48.8,-106.74 19.4,0.17 -61.2,-122.65 131.6,1.17 v -42.89 h 24 v 43.1 l 130.3,1.16 -39.9,80.89 -20.1,40.68"
            style="fill:#224559;fill-opacity:1;fill-rule:nonzero;stroke:none" id="path168" />
          <path
            d="m 14433,1739.86 16.9,0.15 -32.2,71.19 -11.5,25.39 18.9,0.17 -24.3,47.47 -15.2,29.81 -0.3,0.67 20.3,0.18 -17.8,42.15 -9.2,21.77 13.8,0.12 -19.6,46.03 -15,35.2 -35.3,-81.85 15.2,0.13 v -0.13 l -27.5,-64.27 21,0.19 -0.1,-0.19 -40.5,-78.48 19,0.17 -44.5,-97.36 17.6,0.16 -55.8,-111.88 120.1,1.07 v -39.13 h 21.8 v 39.32 l 118.9,1.06 -36.4,73.78 -18.3,37.11"
            style="fill:#3e7f8d;fill-opacity:1;fill-rule:nonzero;stroke:none" id="path170" />
          <path
            d="m 14607.6,1772.36 20.5,0.19 -39.1,86.48 -13.9,30.84 22.9,0.21 -29.4,57.68 -18.5,36.21 -0.4,0.81 24.6,0.22 -21.6,51.21 -11.1,26.44 16.7,0.15 -23.8,55.92 -18.2,42.77 -42.9,-99.44 18.5,0.16 -0.1,-0.16 -33.3,-78.08 25.4,0.23 -0.1,-0.23 -49.2,-95.34 23.1,0.2 -54.1,-118.28 21.4,0.19 -67.7,-135.91 145.8,1.3 v -47.54 h 26.6 v 47.77 l 144.4,1.28 -44.2,89.64 -22.3,45.08"
            style="fill:#224559;fill-opacity:1;fill-rule:nonzero;stroke:none" id="path172" />
          <path
            d="m 14821.3,1846.1 25,0.22 -47.7,105.58 -17,37.66 28,0.25 -36,70.42 -22.6,44.22 -0.5,0.99 30.1,0.26 -26.3,62.52 -13.6,32.28 20.4,0.19 -29.1,68.27 -22.2,52.21 -52.3,-121.4 22.5,0.2 -0.1,-0.2 -40.6,-95.32 31,0.27 -0.2,-0.27 -60,-116.41 28.2,0.25 -66.1,-144.4 26.2,0.23 -82.7,-165.93 178,1.58 v -58.04 h 32.5 v 58.33 l 176.2,1.56 -53.9,109.44 -27.2,55.04"
            style="fill:#224559;fill-opacity:1;fill-rule:nonzero;stroke:none" id="path174" />
          <path
            d="m 14944.6,1804.79 22.1,0.2 -42.2,93.45 -15.1,33.33 24.8,0.22 -31.8,62.33 -20,39.14 -0.5,0.87 26.7,0.24 -23.4,55.33 -12,28.58 18.1,0.16 -25.7,60.43 -19.7,46.21 -46.3,-107.45 19.9,0.17 v -0.17 l -36.1,-84.37 27.5,0.24 -0.1,-0.24 -53.2,-103.03 25,0.22 -58.5,-127.81 23.2,0.2 -73.2,-146.87 157.6,1.4 v -51.36 h 28.7 v 51.62 l 156,1.38 -47.8,96.87 -24,48.71"
            style="fill:#285c6d;fill-opacity:1;fill-rule:nonzero;stroke:none" id="path176" />
          <path
            d="m 15199.1,1878.77 30.4,0.26 -58,128.27 -20.7,45.75 34,0.3 -43.6,85.55 -27.5,53.71 -0.6,1.2 36.6,0.32 -32,75.95 -16.6,39.22 24.9,0.22 -35.4,82.94 -27,63.43 -63.6,-147.49 27.5,0.25 -0.1,-0.25 -49.5,-115.79 37.7,0.33 -0.2,-0.33 -72.9,-141.41 34.3,0.3 -80.3,-175.42 31.8,0.28 -100.5,-201.57 216.3,1.92 v -70.5 h 39.4 v 70.85 l 214.1,1.9 -65.5,132.94 -33,66.87"
            style="fill:#224559;fill-opacity:1;fill-rule:nonzero;stroke:none" id="path178" />
          <path
            d="m 15357.5,1851.7 24.1,0.21 -46,101.83 -16.5,36.32 27,0.24 -34.6,67.91 v 0 l -21.8,42.64 -0.5,0.95 29,0.26 -25.4,60.3 -13.1,31.13 19.7,0.18 -28,65.84 -21.5,50.35 -50.5,-117.08 21.8,0.19 -0.1,-0.19 -39.2,-91.93 29.9,0.27 -0.1,-0.27 -58,-112.26 27.3,0.24 -63.7,-139.26 25.2,0.22 -79.8,-160.02 171.7,1.52 v -55.97 h 31.3 v 56.25 l 170,1.5 -52.1,105.55 -26.1,53.08"
            style="fill:#3e7f8d;fill-opacity:1;fill-rule:nonzero;stroke:none" id="path180" />
          <path
            d="m 15508.8,1858.39 19.5,0.17 -37.1,82.13 -13.3,29.3 21.8,0.19 -28,54.78 -17.5,34.4 -0.4,0.77 23.4,0.21 -20.5,48.63 -10.6,25.11 15.9,0.14 -22.6,53.11 -17.3,40.62 -40.7,-94.44 17.5,0.15 -0.1,-0.15 -31.6,-74.15 24.1,0.21 -0.1,-0.21 -46.7,-90.55 21.9,0.19 -51.3,-112.33 20.3,0.18 -64.3,-129.08 138.5,1.23 v -45.15 h 25.2 v 45.37 l 137.1,1.22 -42,85.13 -21.1,42.82"
            style="fill:#285c6d;fill-opacity:1;fill-rule:nonzero;stroke:none" id="path182" />
          <path
            d="m 15644.5,1832.66 17.2,0.15 -32.7,72.28 -11.7,25.78 19.2,0.17 -24.6,48.21 -15.5,30.27 -0.3,0.68 20.6,0.18 -18.1,42.8 -9.3,22.11 14,0.12 -19.9,46.74 -15.2,35.74 -35.8,-83.11 15.4,0.14 v -0.14 l -27.9,-65.26 21.2,0.19 -0.1,-0.19 -41.1,-79.69 19.3,0.17 -45.2,-98.86 17.9,0.16 -56.6,-113.6 121.9,1.09 v -39.73 h 22.2 v 39.92 l 120.6,1.07 -36.9,74.93 -18.6,37.68"
            style="fill:#3e7f8d;fill-opacity:1;fill-rule:nonzero;stroke:none" id="path184" />
          <path
            d="m 16134.7,1916.33 11.3,0.1 -21.6,47.82 -7.7,17.06 12.6,0.11 -16.3,31.9 -10.2,20.02 -0.2,0.45 13.6,0.12 -11.9,28.31 -6.2,14.63 9.3,0.08 -13.2,30.92 -10.1,23.65 -23.7,-54.99 10.3,0.09 -0.1,-0.09 -18.4,-43.17 14,0.13 v -0.13 l -27.2,-52.72 12.8,0.11 -30,-65.4 11.9,0.1 -37.5,-75.15 80.7,0.72 v -26.29 h 14.7 v 26.42 l 79.8,0.71 -24.5,49.56 -12.2,24.93"
            style="fill:#285c6d;fill-opacity:1;fill-rule:nonzero;stroke:none" id="path186" />
          <g id="g188" transform="scale(1.00605)">
            <path
              d="m 16240.5,1984.02 18.3,0.17 -35,77.55 -12.6,27.65 20.6,0.19 -26.4,51.72 -16.5,32.47 v 0 l -0.4,0.72 22,0.21 -19.3,45.92 -10,23.7 15,0.14 -21.3,50.14 -16.3,38.35 -38.5,-89.16 16.6,0.14 -0.1,-0.14 -29.9,-70.02 22.8,0.21 -0.1,-0.21 -44.1,-85.49 20.7,0.18 -48.5,-106.06 19.2,0.17 -60.8,-121.88 130.8,1.17 v -42.63 h 23.9 v 42.85 l 129.4,1.14 -39.7,80.38 -19.8,40.42"
              style="fill:#285c6d;fill-opacity:1;fill-rule:nonzero;stroke:none" id="path190" />
          </g>
          <g id="g192" transform="scale(1.02206)">
            <path
              d="m 16221.3,1997.45 24.3,0.21 -46.3,102.48 -16.5,36.55 27.1,0.25 -34.8,68.35 v 0 l -22,42.91 -0.4,0.96 29.1,0.26 -25.5,60.68 -13.2,31.34 19.8,0.18 -28.3,66.26 -21.5,50.68 -50.9,-117.83 22,0.19 v -0.19 l -39.6,-92.53 30.2,0.27 -0.2,-0.27 -58.3,-112.98 27.4,0.24 -64.1,-140.16 25.3,0.23 -80.2,-161.06 172.8,1.54 v -56.33 h 31.5 v 56.61 l 171,1.52 -52.3,106.21 -26.4,53.43"
              style="fill:#3e7f8d;fill-opacity:1;fill-rule:nonzero;stroke:none" id="path194" />
          </g>
          <g id="g196" transform="scale(1.03518)">
            <path
              d="m 16239.2,1891.92 18.8,0.18 -35.8,79.06 -12.7,28.21 20.9,0.18 -26.8,52.73 -16.9,33.11 -0.4,0.74 22.5,0.2 -19.7,46.82 -10.2,24.18 15.3,0.13 -21.8,51.12 -16.6,39.11 -39.2,-90.93 16.9,0.16 -0.1,-0.16 -30.5,-71.37 23.2,0.21 -0.1,-0.21 -44.9,-87.16 21.1,0.18 -49.5,-108.14 19.6,0.18 -61.9,-124.26 133.3,1.19 v -43.46 h 24.3 v 43.67 l 132,1.17 -40.4,81.96 -20.4,41.2"
              style="fill:#224559;fill-opacity:1;fill-rule:nonzero;stroke:none" id="path198" />
          </g>
          <g id="g200" transform="scale(1.04826)">
            <path
              d="m 16248.5,1857.81 15.8,0.14 -30.3,67.16 -10.8,23.95 17.7,0.16 -22.8,44.79 h 0.1 l -14.5,28.13 -0.2,0.62 19,0.18 -16.7,39.77 -8.6,20.53 12.9,0.11 -18.5,43.43 -14.1,33.21 -33.3,-77.22 14.3,0.12 v -0.12 l -25.8,-60.63 19.6,0.18 -0.1,-0.18 -38.1,-74.04 17.9,0.16 -42,-91.86 16.6,0.16 -52.5,-105.55 113.2,1 v -36.91 h 20.6 v 37.09 l 112.1,1.01 -34.3,69.61 -17.2,35"
              style="fill:#224559;fill-opacity:1;fill-rule:nonzero;stroke:none" id="path202" />
          </g>
          <g id="g204" transform="scale(1.0515)">
            <path d="M 11433.7,1303.88 H 16300 v 552.63 c -374.1,-26.96 -2757.2,-206.52 -4866.3,-552.63"
              style="fill:#71b52d;fill-opacity:1;fill-rule:nonzero;stroke:none" id="path206" />
          </g>
          <path
            d="m 3507.69,1411.88 -26.2,51.31 -0.59,1.14 34.94,0.31 -30.6,72.55 -15.8,37.47 23.74,0.2 -33.74,79.23 -25.81,60.59 -60.73,-140.88 26.19,0.23 -0.1,-0.23 -47.23,-110.61 36,0.32 -0.16,-0.32 -47.56,-92.16 h 188.5 l -20.85,40.85"
            style="fill:#3e7f8d;fill-opacity:1;fill-rule:nonzero;stroke:none" id="path208" />
          <path
            d="m 3228.03,1437.49 -13.51,32.02 20.29,0.18 -28.84,67.71 -22.05,51.79 -51.91,-120.41 22.39,0.2 -0.09,-0.2 -40.36,-94.54 30.77,0.27 -0.15,-0.27 -1.65,-3.21 h 83.54 l -1.64,3.21 -0.5,0.98 29.86,0.27 -26.15,62"
            style="fill:#3e7f8d;fill-opacity:1;fill-rule:nonzero;stroke:none" id="path210" />
          <path
            d="m 2747.34,1498.39 h 0.01 l -31.3,61.3 -0.7,1.37 41.74,0.37 -36.56,86.69 -18.88,44.76 28.36,0.25 -40.31,94.66 -30.84,72.4 -72.57,-168.33 31.3,0.27 -0.12,-0.27 -56.43,-132.17 43.01,0.38 -0.19,-0.38 -83.29,-161.4 39.14,0.35 -12.63,-27.61 h 224.59 l -13.28,29.37 38.81,0.35 -49.86,97.64"
            style="fill:#3e7f8d;fill-opacity:1;fill-rule:nonzero;stroke:none" id="path212" />
          <path
            d="m 2516.88,1538.94 49.06,0.44 -63.03,123.45 -39.58,77.52 -0.88,1.73 52.78,0.47 -46.23,109.6 -23.87,56.6 35.86,0.31 -50.97,119.69 -38.99,91.54 -91.75,-212.84 39.56,0.35 -0.15,-0.35 -71.35,-167.1 54.4,0.48 -0.25,-0.48 -105.31,-204.07 49.48,0.44 -75.78,-165.69 h 402.9 l -46.06,101.89 -29.84,66.02"
            style="fill:#3e7f8d;fill-opacity:1;fill-rule:nonzero;stroke:none" id="path214" />
          <path
            d="m 1821.81,1498.39 -15.05,35.7 22.62,0.2 -32.15,75.49 -24.59,57.74 -57.88,-134.25 24.96,0.23 -0.1,-0.23 -45,-105.39 34.31,0.3 -0.16,-0.3 -29.33,-56.85 h 147.82 l -4.05,7.95 -24.97,48.9 v 0 l -0.56,1.09 33.29,0.29 -29.16,69.13"
            style="fill:#3e7f8d;fill-opacity:1;fill-rule:nonzero;stroke:none" id="path216" />
          <path
            d="m 1535.15,1463.86 -19.57,45.96 -46.08,-106.87 19.87,0.18 -0.08,-0.18 -13.62,-31.92 h 80.81 l -1.75,4.15 -11.99,28.42 18.01,0.16 -25.6,60.1"
            style="fill:#3e7f8d;fill-opacity:1;fill-rule:nonzero;stroke:none" id="path218" />
          <path
            d="m 1152.67,1391.51 -25.96,50.85 -0.58,1.14 34.62,0.3 -30.33,71.9 -15.66,37.13 23.53,0.21 -33.44,78.52 -25.57,60.05 -60.2,-139.63 25.96,0.23 -0.1,-0.23 -46.803,-109.62 35.683,0.32 -0.17,-0.32 -36.802,-71.33 h 166.282 l -10.46,20.48 v 0"
            style="fill:#3e7f8d;fill-opacity:1;fill-rule:nonzero;stroke:none" id="path220" />
          <path
            d="m 930.848,1542.44 -34.45,67.48 -0.769,1.5 45.941,0.41 -40.242,95.41 -20.777,49.27 31.219,0.28 -44.375,104.19 -33.938,79.69 -79.875,-185.28 34.441,0.3 -0.128,-0.3 -62.114,-145.47 47.352,0.42 -0.219,-0.42 -91.672,-177.65 43.074,0.38 -28.179,-61.62 h 275.601 l -2.75,6.08 -25.98,57.48 42.711,0.38 -54.871,107.47"
            style="fill:#3e7f8d;fill-opacity:1;fill-rule:nonzero;stroke:none" id="path222" />
          <path
            d="m 682.766,1476.31 -31.09,60.89 -0.692,1.36 41.454,0.37 -36.309,86.09 -18.754,44.46 28.172,0.25 -40.039,94.01 -30.625,71.91 -72.074,-167.19 31.078,0.28 -0.117,-0.28 -56.047,-131.26 42.726,0.38 -0.195,-0.38 -82.719,-160.3 38.867,0.34 -2.843,-6.21 h 203.777 l -3.602,7.96 38.539,0.35 -49.507,96.97"
            style="fill:#3e7f8d;fill-opacity:1;fill-rule:nonzero;stroke:none" id="path224" />
          <path
            d="m 292.891,1463.65 h -0.004 l -0.617,1.22 36.871,0.32 -32.297,76.57 -16.676,39.54 25.055,0.22 -35.61,83.62 -27.234,63.95 -64.102,-148.69 27.637,0.24 -0.101,-0.24 -49.844,-116.75 37.996,0.34 -0.172,-0.34 -47.801,-92.62 H 340.18 l -19.645,38.47 -27.644,54.15"
            style="fill:#3e7f8d;fill-opacity:1;fill-rule:nonzero;stroke:none" id="path226" />
          <path
            d="m 114.715,1445.17 -30.8908,68.48 50.8748,0.42 -65.4099,128.16 -41.086,80.36 -0.9804,1.82 54.7851,0.56 -47.9375,113.77 -24.73827,58.7 37.17577,0.28 L 0,2007.1 v -636.07 h 148.223 l -33.508,74.14"
            style="fill:#3e7f8d;fill-opacity:1;fill-rule:nonzero;stroke:none" id="path228" />
          <g id="g230" transform="scale(1.0515)">
            <path d="M 16300,1303.86 V 0.0111448 H 0 V 1303.86 h 16300"
              style="fill:#c7e330;fill-opacity:1;fill-rule:nonzero;stroke:none" id="path232" />
          </g>
          <path d="M 569.488,942.57 4.13281,1197.75 6.23828,1197.63 602.371,1008.54 569.488,942.57 M 0,1199.61 v 0"
            style="fill:#add721;fill-opacity:1;fill-rule:nonzero;stroke:none" id="path234" />
          <path d="M 5540,0 10177,0.0117188 0,1199.61 5088.44,0.0117188 H 5540 V 0"
            style="fill:#d5ea61;fill-opacity:1;fill-rule:nonzero;stroke:none" id="path236" />
          <path d="M 5540,0 V 0.0117188 H 5088.44 L 5088.48,0 H 5540"
            style="fill:#d5ea61;fill-opacity:1;fill-rule:nonzero;stroke:none" id="path238" />
          <g id="g240" transform="scale(1.0515)">
            <path d="m 16300,262.519 v 0 389.416 0 -389.416 m 0,598.165 v 0 180.006 0 -180.006"
              style="fill:#c3e68f;fill-opacity:1;fill-rule:nonzero;stroke:none" id="path242" />
          </g>
          <g id="g244" transform="scale(1.0515)">
            <path
              d="M 16300,262.519 3488.45,951.647 3446.12,1037.49 16300,651.935 V 262.519 m 0,598.165 -12875.84,221.306 -18.71,37.94 L 16300,1040.69 V 860.684 M 645.367,1104.58 24.3885,1137.98 0,1140.85 l 661.423,-4.06 -3.611,-7.25 L 0,1140.85 l 653.677,-19.61 -8.31,-16.66 M 8.5889,1138.83 5.93273,1138.97 0,1140.85 8.5889,1138.83 M 3.93039,1139.08 0,1139.29 v 1.56 l 3.93039,-1.77"
              style="fill:#a2d72c;fill-opacity:1;fill-rule:nonzero;stroke:none" id="path246" />
          </g>
          <path d="M 6.23828,1197.63 4.13281,1197.75 0,1199.61 6.23828,1197.63"
            style="fill:#95d223;fill-opacity:1;fill-rule:nonzero;stroke:none" id="path248" />
          <path d="M 25.6445,1196.59 9.03125,1197.48 0,1199.61 l 25.6445,-3.02"
            style="fill:#a9db46;fill-opacity:1;fill-rule:nonzero;stroke:none" id="path250" />
          <g id="g252" transform="scale(1.0515)">
            <path
              d="m 16070.3,1508.06 c -46.8,0 -90.2,-13.98 -126.5,-37.94 -48.4,86.87 -141.2,145.65 -247.7,145.65 -120.7,0 -223.7,-75.41 -264.7,-181.65 -41.9,45.45 -102,73.94 -168.8,73.94 -126.8,0 -229.6,-102.85 -229.6,-229.72 h 384.6 74.8 348.2 133.9 325.5 c 0,126.87 -102.8,229.72 -229.7,229.72"
              style="fill:#3e8935;fill-opacity:1;fill-rule:nonzero;stroke:none" id="path254" />
          </g>
          <path
            d="m 15844.9,1492.71 c -30.2,0 -58.3,-9.04 -81.7,-24.53 -31.4,56.17 -91.4,94.18 -160.2,94.18 -78.1,0 -144.7,-48.76 -171.1,-117.46 -27.2,29.39 -66,47.81 -109.2,47.81 -82,0 -148.5,-66.5 -148.5,-148.53 h 248.7 48.4 225.1 86.6 210.4 c 0,82.03 -66.5,148.53 -148.5,148.53"
            style="fill:#3e8935;fill-opacity:1;fill-rule:nonzero;stroke:none" id="path256" />
          <g id="g258" transform="scale(1.0515)">
            <path d="m 16300,651.935 v 0 208.749 0 -208.749"
              style="fill:#a9db60;fill-opacity:1;fill-rule:nonzero;stroke:none" id="path260" />
          </g>
          <g id="g262" transform="scale(1.0515)">
            <path
              d="M 16300,651.935 3446.12,1037.49 3424.16,1081.99 16300,860.684 V 651.935 M 653.677,1121.24 0,1140.85 l 657.812,-11.31 -4.135,-8.3"
              style="fill:#93ce22;fill-opacity:1;fill-rule:nonzero;stroke:none" id="path264" />
          </g>
          <path
            d="m 2027.98,1277.68 145.59,1.29 -277.7,614.36 -99.07,219.15 162.84,1.44 -209.2,409.76 h 0.01 l -131.35,257.29 h -0.01 l -2.93,5.74 175.17,1.55 -153.44,363.79 -79.23,187.85 119.04,1.06 -169.19,397.25 -129.39,303.83 -304.55,-706.43 131.32,1.16 -0.5,-1.16 -236.816,-554.64 180.526,1.6 -0.82,-1.6 -349.522,-677.35 164.23,1.46 -384.297,-840.26 152.106,1.34 L 249.5,300.648 1285.64,309.84 V 22.7109 h 188.63 V 311.512 l 1025.58,9.097 -313.96,636.801 -157.91,320.27"
            style="fill:#22592a;fill-opacity:1;fill-rule:nonzero;stroke:none" id="path266" />
          <path d="m 1961.57,1747.97 -65.7,145.36 64.13,-140.62 1.74,-4.37 -0.17,-0.37"
            style="fill:#56882e;fill-opacity:1;fill-rule:nonzero;stroke:none" id="path268" />
          <path
            d="m 1506.57,395.559 c -11.87,9.703 -24.26,18.902 -37.07,27.55 -26.29,17.723 -54.32,33.071 -83.79,45.723 l 290.96,560.548 h -190 l 409.2,863.95 65.7,-145.36 -261.27,-571.26 196.5,1.7 -390.23,-782.851"
            style="fill:#1e421f;fill-opacity:1;fill-rule:nonzero;stroke:none" id="path270" />
          <path
            d="M 1009.1,210.012 C 1009.1,136.809 997.801,66.3086 976.801,0.0117188 H 0 V 830.109 c 94.3008,47.903 201.102,74.903 314.102,74.903 296,0 548.699,-185 648.796,-445.602 29.903,-77.398 46.202,-161.5 46.202,-249.398"
            style="fill:#3e8935;fill-opacity:1;fill-rule:nonzero;stroke:none" id="path272" />
          <path
            d="M 1694.6,0.0117188 H 674.602 C 674.602,202.211 792.297,376.91 962.902,459.41 1030,491.809 1105.2,510.012 1184.6,510.012 c 105.6,0 203.6,-32.102 284.9,-86.903 15.4,-10.398 30.2,-21.597 44.2,-33.5 77.3,-65.3 134.8,-153.199 162.4,-253.5 12.1,-43.3004 18.5,-88.8981 18.5,-136.0972812"
            style="fill:#3e8935;fill-opacity:1;fill-rule:nonzero;stroke:none" id="path274" />
          <path
            d="M 2214.8,0.0117188 H 1569.5 C 1593.3,53.8086 1630.2,100.512 1676.1,136.109 c 59.7,46.301 134.6,73.903 216,73.903 144,0 267.9,-86.301 322.7,-210.0002812"
            style="fill:#3e8935;fill-opacity:1;fill-rule:nonzero;stroke:none" id="path276" />
          <path
            d="m 1309.4,0.0117188 h -60 L 1469.5,423.109 c 12.81,-8.648 25.2,-17.847 37.07,-27.55 L 1309.4,0.0117188"
            style="fill:#31662c;fill-opacity:1;fill-rule:nonzero;stroke:none" id="path278" />
          <path
            d="M 1309.4,0.0117188 1896.8,1178.41 l -196.5,-1.7 496.6,1085.8 -212.2,-1.9 451.6,875.3 1.1,2.1 -233.3,-2.1 306,716.8 0.7,1.5 -169.7,-1.5 393.5,912.9 167.2,-392.7 218.7,-513.3 -153.9,-1.4 102.4,-242.7 198.3,-470.1 -226.4,-2 3.8,-7.5 169.8,-332.4 270.3,-529.5 -210.4,-1.9 128,-283.2 358.9,-793.9 -188.2,-1.7 L 3777.2,779.512 4161.5,0.0117188 H 1309.4"
            style="fill:#297a37;fill-opacity:1;fill-rule:nonzero;stroke:none" id="path280" />
          <path
            d="m 4161.5,0.0117188 v 0 m 0,0 L 3395,1199.61 l -1275,-11.9 1314.3,331.6 -399.3,698.2 -720,61.3 970,187.5 -460,656.5 c 0,0 -220.99,15.71 -302.02,15.71 -10.18,0 -18.14,-0.25 -23.18,-0.81 -0.41,-0.04 -0.76,-0.07 -1.06,-0.07 -33.19,-0.02 563.46,270.07 563.46,270.07 l -265,430 -204.4,35 306.7,140 -164.9,752.9 167.2,-392.7 218.7,-513.3 -153.9,-1.4 102.4,-242.7 198.3,-470.1 -226.4,-2 3.8,-7.5 169.8,-332.4 270.3,-529.5 -210.4,-1.9 128,-283.2 358.9,-793.9 -188.2,-1.7 204.1,-413.798 384.3,-779.5002812"
            style="fill:#225b2b;fill-opacity:1;fill-rule:nonzero;stroke:none" id="path282" />
          <g id="g284" transform="scale(1.00605)">
            <path
              d="m 16078.4,931.378 c -45,0 -86.8,-13.489 -121.8,-36.591 -46.8,83.774 -136.3,140.463 -239,140.463 -116.4,0 -215.7,-72.733 -255.2,-175.183 -40.5,43.836 -98.4,71.311 -162.8,71.311 -122.3,0 -221.5,-99.193 -221.5,-221.543 h 371 72.1 335.7 129.2 313.9 c 0,122.35 -99.2,221.543 -221.6,221.543"
              style="fill:#3e8935;fill-opacity:1;fill-rule:nonzero;stroke:none" id="path286" />
          </g>
          <path
            d="m 15204.1,851.18 c -27.9,0 -53.8,-8.34 -75.4,-22.629 -28.9,51.828 -84.3,86.89 -147.8,86.89 -72,0 -133.5,-44.992 -157.9,-108.371 -25,27.121 -60.9,44.11 -100.7,44.11 -75.7,0 -137.1,-61.36 -137.1,-137.051 h 229.6 44.5 207.8 79.9 194.2 c 0,75.691 -61.4,137.051 -137.1,137.051"
            style="fill:#3e8935;fill-opacity:1;fill-rule:nonzero;stroke:none" id="path288" />
        </g>
      </g>
    </svg>